<svg width="16" height="19" viewBox="0 0 16 19" fill="none" xmlns="http://www.w3.org/2000/svg">
<path fill-rule="evenodd" clip-rule="evenodd" d="M8.89071 17.708C11.0064 16.2644 15.8333 12.4716 15.8333 7.91667C15.8333 3.54441 12.2889 0 7.91667 0C3.54441 0 0 3.54441 0 7.91667C0 12.4716 4.82692 16.2644 6.94262 17.708C7.53425 18.1117 8.29908 18.1117 8.89071 17.708ZM7.91667 10.4167C9.29738 10.4167 10.4167 9.29738 10.4167 7.91667C10.4167 6.53595 9.29738 5.41667 7.91667 5.41667C6.53595 5.41667 5.41667 6.53595 5.41667 7.91667C5.41667 9.29738 6.53595 10.4167 7.91667 10.4167Z" fill="#898989"/>
</svg>
