<svg width="41" height="41" viewBox="0 0 41 41" fill="none" xmlns="http://www.w3.org/2000/svg">
<g clip-path="url(#clip0_27_492)">
<path d="M36.6436 16.4752C36.3806 7.62165 29.0973 0.5 20.1811 0.5C11.265 0.5 3.98159 7.62165 3.71861 16.4752L2.53406 17.6598V25.6932L3.71053 26.8696V32.3431C3.71053 35.5435 6.31414 38.1471 9.51445 38.1471H10.9717C11.4574 39.5164 12.765 40.5 14.2988 40.5H16.6517C18.1865 40.5 19.4948 39.515 19.9797 38.1442C20.0469 38.1454 20.1143 38.1471 20.1811 38.1471C25.8625 38.1471 30.6163 34.0987 31.7093 28.7353H34.7861L37.8282 25.6932V17.6598L36.6436 16.4752ZM20.1811 2.85294C27.1639 2.85294 32.9781 7.94933 34.1016 14.6176H31.7093C30.6163 9.2542 25.8625 5.20588 20.1811 5.20588C14.4997 5.20588 9.74598 9.2542 8.65296 14.6176H6.26065C7.38418 7.94933 13.1983 2.85294 20.1811 2.85294ZM29.2951 14.6176C25.492 14.6063 22.8057 14.8379 20.591 11.6004L19.5156 10.0284L18.5913 11.6938C17.2446 14.1204 15.4311 14.6176 13.1223 14.6176H11.0672C12.1146 10.5629 15.8036 7.55882 20.1811 7.55882C24.5586 7.55882 28.2476 10.5629 29.2951 14.6176ZM8.41641 26.3824H6.55076L4.887 24.7186V18.6344L6.55076 16.9706H8.41641V26.3824ZM6.06347 32.3431V28.7353H8.65069C9.09359 30.9294 10.1533 32.9435 11.7232 34.5611C11.3941 34.9127 11.1359 35.3311 10.9717 35.7941H9.51445C7.61155 35.7941 6.06347 34.246 6.06347 32.3431ZM16.6517 38.1471H14.2988C13.65 38.1471 13.1223 37.6194 13.1223 36.9706C13.1223 36.3219 13.65 35.7941 14.2988 35.7941H16.6517C17.3004 35.7941 17.8282 36.3219 17.8282 36.9706C17.8282 37.6194 17.3004 38.1471 16.6517 38.1471ZM29.5929 26.3824C29.5929 31.572 25.3708 35.7941 20.1811 35.7941C20.1137 35.7941 20.0457 35.7928 19.9777 35.7912C19.4913 34.4234 18.1843 33.4412 16.6517 33.4412C14.236 33.4465 14.2745 33.4291 13.9734 33.4568C11.9309 31.6665 10.7694 29.1166 10.7694 26.3824V16.9706H13.1223C15.2044 16.9706 17.7401 16.6273 19.7029 14.2384C22.2927 16.9524 25.4576 16.9706 28.2986 16.9706H29.5929V26.3824ZM35.4752 24.7186L33.8115 26.3824H31.9458V16.9706H33.8115L35.4752 18.6344V24.7186Z" fill="#3A3A3A"/>
</g>
<defs>
<clipPath id="clip0_27_492">
<rect width="40" height="40" fill="white" transform="translate(0.181152 0.5)"/>
</clipPath>
</defs>
</svg>
