<svg width="40" height="39" viewBox="0 0 40 39" fill="none" xmlns="http://www.w3.org/2000/svg">
<path d="M37.8573 13.5492C37.3295 11.9148 37.5545 9.46143 36.1827 7.56714C34.8 5.65792 32.3952 5.11526 31.0373 4.12214C29.6938 3.13948 28.4438 1.00112 26.1837 0.26362C23.9873 -0.453099 21.7414 0.519479 20 0.519479C18.2588 0.519479 16.013 -0.453333 13.8163 0.263542C11.5566 1.00089 10.3056 3.13971 8.96289 4.1219C7.60648 5.11385 5.19992 5.658 3.8175 7.5669C2.4468 9.45964 2.66953 11.9186 2.14266 13.5491C1.64125 15.1009 0 16.9633 0 19.3752C0 21.7885 1.63938 23.6438 2.14266 25.2012C2.67047 26.8356 2.44547 29.2889 3.81734 31.1832C5.19992 33.0925 7.60461 33.6351 8.96266 34.6283C10.306 35.6108 11.5562 37.7493 13.8163 38.4867C16.0112 39.203 18.2606 38.2309 20 38.2309C21.737 38.2309 23.9916 39.202 26.1837 38.4868C28.4434 37.7495 29.6937 35.6111 31.0371 34.6285C32.3935 33.6365 34.8001 33.0924 36.1825 31.1835C37.5533 29.2907 37.3304 26.8319 37.8573 25.2013C38.3587 23.6494 40 21.787 40 19.3752C40 16.962 38.361 15.1073 37.8573 13.5492ZM34.8838 24.2403C34.2686 26.1446 34.4298 28.2758 33.6516 29.3503C32.863 30.4392 30.7913 30.9365 29.1926 32.1059C27.6114 33.2622 26.5032 35.0953 25.2143 35.5158C23.9949 35.9138 22.0077 35.1057 20.0001 35.1057C17.9777 35.1057 16.011 35.9155 14.7858 35.5158C13.497 35.0953 12.3904 33.2635 10.8075 32.1058C9.21828 30.9435 7.13469 30.436 6.34836 29.3502C5.57273 28.2792 5.72781 26.1333 5.11633 24.2404C4.51695 22.3858 3.125 20.7799 3.125 19.3752C3.125 17.969 4.5157 16.3687 5.11617 14.51C5.73141 12.6058 5.57023 10.4745 6.34836 9.40003C7.13648 8.3119 9.20984 7.81292 10.8075 6.64448C12.3937 5.4844 13.4949 3.65573 14.7856 3.23456C16.004 2.83706 17.9977 3.64464 19.9999 3.64464C22.0259 3.64464 23.9877 2.83432 25.2142 3.23456C26.5028 3.65503 27.6104 5.48753 29.1926 6.64456C30.7816 7.80682 32.8653 8.3144 33.6516 9.4001C34.4274 10.4713 34.2715 12.615 34.8837 14.5099V14.5099C35.483 16.3646 36.875 17.9704 36.875 19.3752C36.875 20.7814 35.4843 22.3817 34.8838 24.2403ZM27.1987 14.3599C27.8089 14.9702 27.8089 15.9595 27.1987 16.5696L19.3779 24.3904C18.7677 25.0007 17.7783 25.0006 17.1681 24.3904L12.8014 20.0237C12.1912 19.4135 12.1911 18.4242 12.8013 17.814C13.4116 17.2039 14.401 17.2038 15.011 17.814L18.273 21.0759L24.9888 14.36C25.5991 13.7498 26.5884 13.7498 27.1987 14.3599Z" fill="#3A3A3A"/>
</svg>
